HIERARCHY
ROOT joint_0
{
	OFFSET 0.000000 0.000000 0.000000
	CHANNELS 6 Xposition Yposition Zposition Zrotation Yrotation Xrotation 
	JOINT joint_1
	{
		OFFSET 0.511002 1.944000 108.288940
		CHANNELS 3 Zrotation Yrotation Xrotation
		JOINT joint_2
		{
			OFFSET -9.074005 1.512993 98.440063
			CHANNELS 3 Zrotation Yrotation Xrotation
			JOINT joint_3
			{
				OFFSET -8.590996 1.815002 98.366943
				CHANNELS 3 Zrotation Yrotation Xrotation
				JOINT joint_4
				{
					OFFSET 2.489998 3.531998 136.462036
					CHANNELS 3 Zrotation Yrotation Xrotation
					JOINT joint_5
					{
						OFFSET 22.708000 2.955002 80.357056
						CHANNELS 3 Zrotation Yrotation Xrotation
						End Site
						{
							OFFSET 0.000000 0.000000 0.000000
						}
					}
				}
				JOINT joint_6
				{
					OFFSET 2.860001 -27.684998 77.234009
					CHANNELS 3 Zrotation Yrotation Xrotation
					JOINT joint_7
					{
						OFFSET 5.449997 -131.244003 -18.851929
						CHANNELS 3 Zrotation Yrotation Xrotation
						JOINT joint_8
						{
							OFFSET 35.757000 -24.661995 -264.074097
							CHANNELS 3 Zrotation Yrotation Xrotation
							JOINT joint_9
							{
								OFFSET 49.392001 -1.747002 -239.960938
								CHANNELS 3 Zrotation Yrotation Xrotation
								End Site
								{
									OFFSET 0.000000 0.000000 0.000000
								}
							}
						}
					}
				}
				JOINT joint_10
				{
					OFFSET -0.127998 31.625000 75.753052
					CHANNELS 3 Zrotation Yrotation Xrotation
					JOINT joint_11
					{
						OFFSET -5.618004 131.132996 -19.557007
						CHANNELS 3 Zrotation Yrotation Xrotation
						JOINT joint_12
						{
							OFFSET 46.488998 30.127991 -261.826050
							CHANNELS 3 Zrotation Yrotation Xrotation
							JOINT joint_13
							{
								OFFSET 66.021003 0.474030 -235.934937
								CHANNELS 3 Zrotation Yrotation Xrotation
								End Site
								{
									OFFSET 0.000000 0.000000 0.000000
								}
							}
						}
					}
				}
			}
		}
	}
	JOINT joint_14
	{
		OFFSET 15.887001 -78.871004 -94.561035
		CHANNELS 3 Zrotation Yrotation Xrotation
		JOINT joint_15
		{
			OFFSET -4.133003 6.714001 -473.615967
			CHANNELS 3 Zrotation Yrotation Xrotation
			JOINT joint_16
			{
				OFFSET -19.541000 5.340000 -399.613007
				CHANNELS 3 Zrotation Yrotation Xrotation
				JOINT joint_17
				{
					OFFSET 164.317001 41.657999 -73.195000
					CHANNELS 3 Zrotation Yrotation Xrotation
					End Site
					{
						OFFSET 0.000000 0.000000 0.000000
					}
				}
			}
		}
	}
	JOINT joint_18
	{
		OFFSET 6.513000 77.960991 -96.406982
		CHANNELS 3 Zrotation Yrotation Xrotation
		JOINT joint_19
		{
			OFFSET -10.660004 -8.518997 -473.485016
			CHANNELS 3 Zrotation Yrotation Xrotation
			JOINT joint_20
			{
				OFFSET -36.967995 -11.098999 -398.260010
				CHANNELS 3 Zrotation Yrotation Xrotation
				JOINT joint_21
				{
					OFFSET 166.067997 30.363998 -74.785000
					CHANNELS 3 Zrotation Yrotation Xrotation
					End Site
					{
						OFFSET 0.000000 0.000000 0.000000
					}
				}
			}
		}
	}
}
MOTION
Frames: 15
Frame Time: 0.016667
-1980.202271 931.049072 1060.812988 1.424160 4.741675 0.217950 0.144869 -2.106875 1.317181 -0.049929 0.246756 -0.256606 0.003019 -0.451566 0.206876 0.235526 -0.380544 -0.780532 0.000000 0.000000 0.000000 1.508803 -1.685990 -0.527828 0.031672 -1.504655 -1.319519 -0.129151 1.252688 -0.572148 0.000000 0.000000 0.000000 -4.245285 -0.058592 -1.614494 0.374986 0.672400 -0.720842 1.354979 0.712586 4.789663 0.000000 0.000000 0.000000 -2.946538 -4.840292 -2.669704 -2.946808 -0.076076 -0.105175 -2.913091 -0.884118 -1.064795 0.000000 0.000000 0.000000 -0.779558 -5.868077 4.663954 -0.748597 -1.454793 -0.880217 -0.865522 2.596583 -0.861883 0.000000 0.000000 0.000000 
-1980.136841 930.851013 1060.790039 1.425879 4.738127 0.217871 0.145329 -2.109799 1.320743 -0.050120 0.246141 -0.257584 0.002898 -0.450226 0.207163 0.235353 -0.376530 -0.780463 0.000000 0.000000 0.000000 1.513284 -1.680068 -0.516665 0.027883 -1.498956 -1.342231 -0.128467 1.248881 -0.568985 0.000000 0.000000 0.000000 -4.245411 -0.057216 -1.634359 0.377409 0.675583 -0.708464 1.353397 0.708293 4.784296 0.000000 0.000000 0.000000 -2.947729 -4.836405 -2.657422 -2.948030 -0.068314 -0.105715 -2.914335 -0.881401 -1.066073 0.000000 0.000000 0.000000 -0.779420 -5.866787 4.681002 -0.748281 -1.442773 -0.889006 -0.865681 2.594788 -0.861621 0.000000 0.000000 0.000000 
-1980.054810 930.674133 1060.766968 1.426368 4.732279 0.217271 0.144980 -2.118750 1.328174 -0.051593 0.247024 -0.258740 0.001664 -0.451356 0.208422 0.235847 -0.365057 -0.783733 0.000000 0.000000 0.000000 1.521794 -1.672368 -0.510824 0.023849 -1.490684 -1.365880 -0.127422 1.245562 -0.564036 0.000000 0.000000 0.000000 -4.242350 -0.052619 -1.656800 0.379914 0.681512 -0.699058 1.353304 0.706388 4.784136 0.000000 0.000000 0.000000 -2.949191 -4.829641 -2.647830 -2.949535 -0.058545 -0.102526 -2.915800 -0.882987 -1.066358 0.000000 0.000000 0.000000 -0.778860 -5.862005 4.696387 -0.747503 -1.429569 -0.896125 -0.865174 2.589037 -0.860338 0.000000 0.000000 0.000000 
-1979.960449 930.507080 1060.744995 1.426467 4.725019 0.216501 0.144610 -2.133322 1.337479 -0.053417 0.249954 -0.260107 0.000131 -0.454494 0.209332 0.235998 -0.347550 -0.786589 0.000000 0.000000 0.000000 1.530123 -1.663464 -0.505693 0.019510 -1.481238 -1.391310 -0.126230 1.242542 -0.558366 0.000000 0.000000 0.000000 -4.238573 -0.046048 -1.680242 0.382615 0.689357 -0.690070 1.353800 0.706009 4.786040 0.000000 0.000000 0.000000 -2.950884 -4.820802 -2.639585 -2.951281 -0.047888 -0.097384 -2.917470 -0.886814 -1.066167 0.000000 0.000000 0.000000 -0.778148 -5.855241 4.710938 -0.746558 -1.415342 -0.902473 -0.864391 2.581598 -0.858623 0.000000 0.000000 0.000000 
-1979.865601 930.334045 1060.723022 1.426322 4.715687 0.215915 0.144879 -2.146012 1.345251 -0.054363 0.250435 -0.261202 -0.000610 -0.456395 0.210171 0.236045 -0.327337 -0.789445 0.000000 0.000000 0.000000 1.535901 -1.654955 -0.499918 0.015112 -1.472638 -1.418293 -0.124188 1.237082 -0.548695 0.000000 0.000000 0.000000 -4.236291 -0.039557 -1.702159 0.385891 0.697454 -0.678942 1.353626 0.701887 4.785633 0.000000 0.000000 0.000000 -2.952336 -4.809673 -2.629500 -2.952753 -0.037688 -0.095945 -2.919036 -0.889862 -1.066127 0.000000 0.000000 0.000000 -0.777656 -5.845560 4.725012 -0.745805 -1.402332 -0.907433 -0.863709 2.575227 -0.857149 0.000000 0.000000 0.000000 
-1979.767944 930.148193 1060.701050 1.425543 4.704784 0.215644 0.145733 -2.158970 1.350077 -0.054414 0.251233 -0.261515 -0.000550 -0.457231 0.210925 0.235687 -0.305908 -0.791032 0.000000 0.000000 0.000000 1.539450 -1.646692 -0.493013 0.010500 -1.464699 -1.447096 -0.120595 1.225211 -0.531835 0.000000 0.000000 0.000000 -4.232897 -0.033053 -1.721169 0.389924 0.705520 -0.664434 1.351590 0.690020 4.778826 0.000000 0.000000 0.000000 -2.953100 -4.795788 -2.615772 -2.953490 -0.030276 -0.101194 -2.920099 -0.889364 -1.066762 0.000000 0.000000 0.000000 -0.776794 -5.832925 4.738205 -0.744669 -1.391603 -0.910029 -0.862516 2.570257 -0.855704 0.000000 0.000000 0.000000 
-1979.669922 929.957336 1060.677979 1.424009 4.691987 0.215167 0.147473 -2.170819 1.354697 -0.053580 0.251567 -0.262423 0.000421 -0.458807 0.211272 0.234916 -0.281864 -0.791513 0.000000 0.000000 0.000000 1.540562 -1.638366 -0.485362 0.005758 -1.457119 -1.477306 -0.116150 1.210357 -0.510989 0.000000 0.000000 0.000000 -4.230550 -0.026049 -1.738008 0.394562 0.714303 -0.648412 1.348908 0.673719 4.769818 0.000000 0.000000 0.000000 -2.953385 -4.779802 -2.599977 -2.953714 -0.023409 -0.109844 -2.920802 -0.887828 -1.067500 0.000000 0.000000 0.000000 -0.775729 -5.817749 4.751367 -0.743286 -1.381625 -0.911733 -0.861026 2.565571 -0.854178 0.000000 0.000000 0.000000 
-1979.576904 929.766174 1060.656006 1.422457 4.679425 0.214455 0.148931 -2.183853 1.359324 -0.053138 0.252840 -0.263902 0.001120 -0.460181 0.212314 0.234072 -0.258071 -0.791701 0.000000 0.000000 0.000000 1.542519 -1.631690 -0.477243 0.001109 -1.451138 -1.508413 -0.111888 1.197005 -0.490955 0.000000 0.000000 0.000000 -4.227343 -0.020004 -1.756132 0.399306 0.722165 -0.630147 1.346453 0.659785 4.761583 0.000000 0.000000 0.000000 -2.953864 -4.766248 -2.584892 -2.954101 -0.012239 -0.116641 -2.921678 -0.888389 -1.067783 0.000000 0.000000 0.000000 -0.774566 -5.802991 4.766494 -0.741702 -1.372243 -0.916238 -0.859638 2.563086 -0.853100 0.000000 0.000000 0.000000 
-1979.494751 929.574219 1060.634033 1.419818 4.667010 0.212681 0.150705 -2.195588 1.364250 -0.052349 0.252865 -0.265212 0.002096 -0.460884 0.213055 0.232897 -0.235511 -0.790555 0.000000 0.000000 0.000000 1.545531 -1.627185 -0.468832 -0.003366 -1.447188 -1.538899 -0.108525 1.186036 -0.475147 0.000000 0.000000 0.000000 -4.225394 -0.015560 -1.774326 0.403714 0.728633 -0.610248 1.344325 0.651088 4.754397 0.000000 0.000000 0.000000 -2.954251 -4.756599 -2.570726 -2.954363 0.005677 -0.119680 -2.922420 -0.892615 -1.067081 0.000000 0.000000 0.000000 -0.773111 -5.788989 4.785848 -0.739617 -1.363280 -0.926047 -0.858296 2.563741 -0.852616 0.000000 0.000000 0.000000 
-1979.418701 929.381897 1060.610962 1.416691 4.654327 0.210681 0.152575 -2.207311 1.368480 -0.051311 0.253527 -0.265374 0.003158 -0.462030 0.212923 0.231515 -0.212185 -0.788782 0.000000 0.000000 0.000000 1.549386 -1.623879 -0.460254 -0.007788 -1.444345 -1.569767 -0.105271 1.175570 -0.459840 0.000000 0.000000 0.000000 -4.223872 -0.011836 -1.792437 0.408188 0.734502 -0.589148 1.342628 0.644482 4.748700 0.000000 0.000000 0.000000 -2.954555 -4.749013 -2.557309 -2.954511 0.028015 -0.120900 -2.923077 -0.899212 -1.065740 0.000000 0.000000 0.000000 -0.771239 -5.774974 4.807268 -0.736979 -1.354782 -0.939245 -0.856762 2.566160 -0.852370 0.000000 0.000000 0.000000 
-1979.346069 929.196350 1060.587036 1.416264 4.641900 0.210417 0.153914 -2.218406 1.372199 -0.050808 0.253863 -0.266250 0.003824 -0.462925 0.213766 0.230753 -0.192378 -0.788735 0.000000 0.000000 0.000000 1.552091 -1.620389 -0.451904 -0.012456 -1.441463 -1.601225 -0.101949 1.162908 -0.444308 0.000000 0.000000 0.000000 -4.223598 -0.008186 -1.811949 0.413059 0.740650 -0.567049 1.341115 0.636848 4.743655 0.000000 0.000000 0.000000 -2.955749 -4.742133 -2.546464 -2.955551 0.051284 -0.121674 -2.924623 -0.906773 -1.064547 0.000000 0.000000 0.000000 -0.770031 -5.762826 4.826120 -0.735138 -1.343749 -0.951989 -0.855863 2.566169 -0.851966 0.000000 0.000000 0.000000 
-1979.276245 929.021606 1060.557007 1.419940 4.629263 0.213752 0.153432 -2.229192 1.373962 -0.051912 0.256013 -0.266629 0.002813 -0.465072 0.213763 0.230872 -0.178141 -0.791064 0.000000 0.000000 0.000000 1.557111 -1.616471 -0.444411 -0.017361 -1.437722 -1.632075 -0.098568 1.147229 -0.428625 0.000000 0.000000 0.000000 -4.222264 -0.003798 -1.830149 0.418140 0.747282 -0.546617 1.340173 0.627189 4.740628 0.000000 0.000000 0.000000 -2.958578 -4.735607 -2.540878 -2.958242 0.076336 -0.120862 -2.927805 -0.917206 -1.063349 0.000000 0.000000 0.000000 -0.769756 -5.752382 4.839513 -0.734439 -1.329364 -0.963321 -0.855783 2.560549 -0.850898 0.000000 0.000000 0.000000 
-1979.208740 928.852783 1060.525024 1.426718 4.616838 0.219026 0.152193 -2.239858 1.373682 -0.053435 0.258100 -0.265301 0.001163 -0.466985 0.213061 0.231077 -0.165881 -0.793440 0.000000 0.000000 0.000000 1.562122 -1.612062 -0.436933 -0.022603 -1.433476 -1.663783 -0.094988 1.128789 -0.412106 0.000000 0.000000 0.000000 -4.222489 0.000766 -1.849088 0.423704 0.754453 -0.525686 1.339667 0.616053 4.739145 0.000000 0.000000 0.000000 -2.962411 -4.729653 -2.537890 -2.961936 0.102400 -0.119779 -2.932007 -0.929087 -1.062234 0.000000 0.000000 0.000000 -0.770315 -5.743721 4.850453 -0.734687 -1.312538 -0.974793 -0.856537 2.552316 -0.849723 0.000000 0.000000 0.000000 
-1979.139404 928.685059 1060.494019 1.432099 4.604841 0.222249 0.151635 -2.250912 1.376950 -0.054698 0.259303 -0.265145 -0.000109 -0.467620 0.212927 0.231538 -0.153428 -0.796744 0.000000 0.000000 0.000000 1.567058 -1.606918 -0.428682 -0.028154 -1.428598 -1.697997 -0.090806 1.109006 -0.392735 0.000000 0.000000 0.000000 -4.221281 0.005746 -1.869708 0.429480 0.761986 -0.503582 1.338839 0.604099 4.736575 0.000000 0.000000 0.000000 -2.965470 -4.722375 -2.531055 -2.964852 0.124323 -0.121975 -2.935477 -0.937581 -1.061650 0.000000 0.000000 0.000000 -0.770460 -5.734906 4.863797 -0.734443 -1.296536 -0.986911 -0.856908 2.545029 -0.848551 0.000000 0.000000 0.000000 
-1979.049194 928.506714 1060.463989 1.433851 4.593273 0.221856 0.153148 -2.264866 1.383379 -0.054192 0.258244 -0.264718 0.000266 -0.465752 0.212514 0.232079 -0.137959 -0.800730 0.000000 0.000000 0.000000 1.572889 -1.604040 -0.415387 -0.033297 -1.425798 -1.724132 -0.094676 1.110999 -0.411307 0.000000 0.000000 0.000000 -4.220585 0.004420 -1.894919 0.431485 0.763271 -0.473197 1.338146 0.632294 4.734036 0.000000 0.000000 0.000000 -2.966876 -4.709756 -2.516014 -2.966173 0.134728 -0.130058 -2.937255 -0.935140 -1.063090 0.000000 0.000000 0.000000 -0.770280 -5.722512 4.881610 -0.733615 -1.286473 -0.999715 -0.856997 2.543571 -0.848321 0.000000 0.000000 0.000000 
